<svg width="24" height="24" viewBox="0 0 24 24" fill="none" xmlns="http://www.w3.org/2000/svg">
<path fill-rule="evenodd" clip-rule="evenodd" d="M12 5C9.23858 5 7 7.23858 7 10C7 10.5783 7.27902 11.4389 7.82663 12.5028C8.3576 13.5344 9.07648 14.6362 9.81186 15.6588C10.5446 16.6777 11.2796 17.5984 11.8324 18.2653C11.8904 18.3353 11.9463 18.4024 12 18.4665C12.0537 18.4024 12.1096 18.3353 12.1676 18.2653C12.7204 17.5984 13.4554 16.6777 14.1881 15.6588C14.9235 14.6362 15.6424 13.5344 16.1734 12.5028C16.721 11.4389 17 10.5783 17 10C17 7.23858 14.7614 5 12 5ZM12 20C11.2557 20.6679 11.2556 20.6678 11.2555 20.6676L11.2501 20.6616L11.2359 20.6456L11.1829 20.5859C11.1371 20.534 11.0706 20.4582 10.9865 20.3612C10.8183 20.1671 10.5791 19.8873 10.2926 19.5417C9.72044 18.8514 8.95537 17.8933 8.18814 16.8265C7.42352 15.7633 6.6424 14.5722 6.04837 13.4181C5.47098 12.2964 5 11.0786 5 10C5 6.13401 8.13401 3 12 3C15.866 3 19 6.13401 19 10C19 11.0786 18.529 12.2964 17.9516 13.4181C17.3576 14.5722 16.5765 15.7633 15.8119 16.8265C15.0446 17.8933 14.2796 18.8514 13.7074 19.5417C13.4209 19.8873 13.1817 20.1671 13.0135 20.3612C12.9294 20.4582 12.8629 20.534 12.8171 20.5859L12.7641 20.6456L12.7499 20.6616L12.7449 20.6672C12.7447 20.6674 12.7443 20.6679 12 20ZM12 20L12.7449 20.6672L12 21.4973L11.2555 20.6676L12 20Z" fill="#55AADD"/>
<circle cx="12" cy="10" r="1.5" fill="#55AADD"/>
</svg>
