<svg width="24" height="24" viewBox="0 0 24 24" fill="none" xmlns="http://www.w3.org/2000/svg">
<path d="M11.2555 20.6676C11.2555 20.6676 11.2557 20.6679 12 20C12.7443 20.6679 12.7449 20.6672 12.7449 20.6672L12 21.4973L11.2555 20.6676Z" fill="#55AADD"/>
<path d="M12 11.5C12.8284 11.5 13.5 10.8284 13.5 10C13.5 9.17157 12.8284 8.5 12 8.5C11.1716 8.5 10.5 9.17157 10.5 10C10.5 10.8284 11.1716 11.5 12 11.5Z" fill="#55AADD"/>
<path fill-rule="evenodd" clip-rule="evenodd" d="M11.2555 20.6676L12 20L12.7449 20.6672L12.7499 20.6616L12.7641 20.6456L12.8171 20.5859C12.8629 20.534 12.9294 20.4582 13.0135 20.3612C13.1817 20.1671 13.4209 19.8873 13.7074 19.5417C14.2796 18.8514 15.0446 17.8933 15.8119 16.8265C16.5765 15.7633 17.3576 14.5722 17.9516 13.4181C18.529 12.2964 19 11.0786 19 10C19 6.13401 15.866 3 12 3C8.13401 3 5 6.13401 5 10C5 11.0786 5.47098 12.2964 6.04837 13.4181C6.6424 14.5722 7.42352 15.7633 8.18814 16.8265C8.95537 17.8933 9.72044 18.8514 10.2926 19.5417C10.5791 19.8873 10.8183 20.1671 10.9865 20.3612C11.0706 20.4582 11.1371 20.534 11.1829 20.5859L11.2359 20.6456L11.2501 20.6616L11.2555 20.6676ZM7 10C7 7.23858 9.23858 5 12 5C14.7614 5 17 7.23858 17 10C17 10.5783 16.721 11.4389 16.1734 12.5028C15.6424 13.5344 14.9235 14.6362 14.1881 15.6588C13.4554 16.6777 12.7204 17.5984 12.1676 18.2653C12.1096 18.3353 12.0537 18.4024 12 18.4665C11.9463 18.4024 11.8904 18.3353 11.8324 18.2653C11.2796 17.5984 10.5446 16.6777 9.81186 15.6588C9.07648 14.6362 8.3576 13.5344 7.82663 12.5028C7.27902 11.4389 7 10.5783 7 10Z" fill="#55AADD"/>
</svg>
