<svg width="24" height="24" viewBox="0 0 24 24" fill="none" xmlns="http://www.w3.org/2000/svg">
<path fill-rule="evenodd" clip-rule="evenodd" d="M6.30147 3.88725L11.4142 9L8.10928 12.3049C8.56545 12.9981 9.09674 13.6825 9.70711 14.2929C10.3175 14.9033 11.0019 15.4346 11.6951 15.8907L15 12.5858L20.1128 17.6985L16.1448 20.0793C15.7495 19.9683 15.3576 19.8525 14.9704 19.7155C14.5114 19.553 13.872 19.3067 13.1406 18.9681C11.6887 18.296 9.82253 17.2367 8.2929 15.7071C6.76327 14.1775 5.70399 12.3113 5.03186 10.8594C4.69328 10.128 4.44698 9.48864 4.28454 9.0296C4.14747 8.64225 4.03168 8.25055 3.92066 7.85525L6.30147 3.88725ZM6.08917 8.12838C6.11273 8.19842 6.13964 8.27668 6.16998 8.36241C6.31559 8.77392 6.53897 9.35421 6.84683 10.0192C6.92014 10.1776 6.99791 10.3401 7.08022 10.5056L8.58579 9L6.69854 7.11275L6.08917 8.12838ZM15.8716 17.9108L16.8873 17.3015L15 15.4142L13.4944 16.9198C13.6599 17.0021 13.8224 17.0799 13.9808 17.1532C14.6458 17.461 15.2261 17.6844 15.6376 17.83C15.7233 17.8604 15.8016 17.8873 15.8716 17.9108Z" fill="#55AADD"/>
</svg>
