<svg width="24" height="24" viewBox="0 0 24 24" fill="none" xmlns="http://www.w3.org/2000/svg">
<path fill-rule="evenodd" clip-rule="evenodd" d="M9.5 4C13.0899 4 16 6.91015 16 10.5C16 11.9341 15.5356 13.2597 14.7489 14.3347L19.7071 19.2929L18.2929 20.7071L13.3347 15.7489C12.2597 16.5356 10.9341 17 9.5 17C5.91015 17 3 14.0899 3 10.5C3 6.91015 5.91015 4 9.5 4ZM14 10.5C14 8.01472 11.9853 6 9.5 6C7.01472 6 5 8.01472 5 10.5C5 12.9853 7.01472 15 9.5 15C11.9853 15 14 12.9853 14 10.5Z" fill="#55AADD"/>
</svg>
