<svg width="87" height="38" viewBox="0 0 87 38" xmlns="http://www.w3.org/2000/svg">
<rect y="21" width="87" height="17" class="background"/>
<path d="M35 27C35 25.5 37 25 39 25C41 25 43 25.5 43 27V32C43 33.5 41 34 39 34C37 34 35 33.5 35 32V27Z" class="primary"/>
<path fill-rule="evenodd" clip-rule="evenodd" d="M0 38V21.0556H87V38H0ZM19 28H26V27C26 25 24 23.5 15 23.5C6 23.5 4 25 4 27V32C4 34 6 35.5 15 35.5C24 35.5 26 34 26 32V31H19V32C19 33.5 17 34 15 34C13 34 11 33.4175 11 32V27C11.0153 25.5 13 25 15 25C17 25 19 25.5 19 27V28ZM39 35.5C48 35.5 50 34 50 32V27C50 25 48.5 23.5 39.5 23.5C30.5 23.5 28 25 28 27V32C28 34 30 35.5 39 35.5ZM76 35L83 35V24L72 24L67.5 30.5L63 24H52V35H59V26.5L65 35H70L76 26.5V35Z" class="primary"/>
<path d="M21 4H31V2.11596e-06H0V4L10 4V19H21V4Z" class="dark"/>
<path fill-rule="evenodd" clip-rule="evenodd" d="M75 19H87L75.5 9.5L87 0H75L70 5L65 0L53 2.11596e-06L63.5 9.5L56.3333 15.9841L47.5 1.90735e-06H36.5L25 19H35L36.5 16H46.5L48 19H65L70 14L75 19ZM41.5 6L44.5 12H38.5L41.5 6Z" class="dark"/>
</svg>
