<svg width="24" height="24" viewBox="0 0 24 24" fill="none" xmlns="http://www.w3.org/2000/svg">
<path fill-rule="evenodd" clip-rule="evenodd" d="M12 6C10.8954 6 10 6.89543 10 8C10 9.10457 10.8954 10 12 10C13.1046 10 14 9.10457 14 8C14 6.89543 13.1046 6 12 6ZM8 8C8 5.79086 9.79086 4 12 4C14.2091 4 16 5.79086 16 8C16 10.2091 14.2091 12 12 12C9.79086 12 8 10.2091 8 8Z" fill="#55AADD"/>
<path fill-rule="evenodd" clip-rule="evenodd" d="M5.13962 16.4189C5.82019 14.3772 7.73088 13 9.88304 13H14.117C16.2691 13 18.1798 14.3772 18.8604 16.4189L19.9487 19.6838L18.0513 20.3162L16.963 17.0513C16.5547 15.8263 15.4083 15 14.117 15H9.88304C8.59174 15 7.44533 15.8263 7.03699 17.0513L5.94868 20.3162L4.05132 19.6838L5.13962 16.4189Z" fill="#55AADD"/>
</svg>
